<svg xmlns="http://www.w3.org/2000/svg" xmlns:xlink="http://www.w3.org/1999/xlink" data-name="Layer 1" width="860.13137" height="551.74119" viewBox="0 0 860.13137 551.74119"><path d="M973.93474,661.6294H756.58639A29.859,29.859,0,0,1,726.76056,631.804V288.961a29.85942,29.85942,0,0,1,29.82583-29.82582H973.93474a29.85941,29.85941,0,0,1,29.82582,29.82582V631.804A29.859,29.859,0,0,1,973.93474,661.6294Z" transform="translate(-169.93432 -174.1294)" fill="#e6e6e6"/><path d="M977.53913,276.93253H756.17645a9.34834,9.34834,0,0,0-9.33681,9.33676V633.58254a9.35131,9.35131,0,0,0,9.33681,9.33681H977.53913a9.34833,9.34833,0,0,0,9.33675-9.33681V286.26929A9.34829,9.34829,0,0,0,977.53913,276.93253Z" transform="translate(-169.93432 -174.1294)" fill="#fff"/><path d="M761.899,259.13517a2.2844,2.2844,0,0,1,2.28171-2.28171h15.51565a2.28171,2.28171,0,1,1,0,4.56342H764.18066A2.2844,2.2844,0,0,1,761.899,259.13517Z" transform="translate(-169.93432 -174.1294)" fill="#e6e6e6"/><path d="M787.45414,259.13517a2.2844,2.2844,0,0,1,2.28171-2.28171H805.2515a2.28171,2.28171,0,1,1,0,4.56342H789.73585A2.2844,2.2844,0,0,1,787.45414,259.13517Z" transform="translate(-169.93432 -174.1294)" fill="#e6e6e6"/><path d="M940.78528,259.13517a2.2844,2.2844,0,0,1,2.28171-2.28171h15.51565a2.28171,2.28171,0,0,1,0,4.56342H943.067A2.2844,2.2844,0,0,1,940.78528,259.13517Z" transform="translate(-169.93432 -174.1294)" fill="#e6e6e6"/><path d="M897.5331,635.76388c0,2.40036-.04562,4.79159-.15514,7.15547H756.17645a9.35131,9.35131,0,0,1-9.33681-9.33681V458.76681A179.28922,179.28922,0,0,1,897.5331,635.76388Z" transform="translate(-169.93432 -174.1294)" fill="#f2f2f2"/><rect x="665.80402" y="192.05598" width="61.33866" height="14.09239" rx="4.33898" fill="#5fb878"/><rect x="632.33461" y="220.24075" width="128.27749" height="14.09239" rx="4.33898" fill="#e6e6e6"/><rect x="632.33461" y="248.42552" width="128.27749" height="14.09239" rx="4.33898" fill="#e6e6e6"/><path d="M905.7277,619.18312a3.3479,3.3479,0,0,1-2.42636-5.80273l.2294-.912q-.0453-.10953-.09115-.21892a8.99055,8.99055,0,0,0-16.5841.06163c-2.71242,6.53275-6.16579,13.07667-7.0161,19.984a26.59733,26.59733,0,0,0,.4669,9.14736,106.63467,106.63467,0,0,1-9.70014-44.28879,102.92258,102.92258,0,0,1,.63842-11.482q.52887-4.68811,1.46746-9.30947a107.87005,107.87005,0,0,1,21.39163-45.71811A28.70736,28.70736,0,0,0,906.043,518.25689a21.8981,21.8981,0,0,0,1.99149-5.984c-.58122.07624-1.172.12388-1.75322.162-.18108.00948-.37163.019-.5527.0286l-.06829.00305a3.317,3.317,0,0,1-2.72419-5.404q.37644-.46328.75335-.92609c.38118-.47646.77185-.94336,1.153-1.41975a1.65137,1.65137,0,0,0,.12387-.143c.43839-.54314.87662-1.07672,1.315-1.61986a9.5916,9.5916,0,0,0-3.14445-3.03954c-4.39269-2.57271-10.45288-.79089-13.62593,3.18253-3.18253,3.97335-3.78279,9.54767-2.67755,14.512a38.43857,38.43857,0,0,0,5.317,11.85351c-.23826.305-.486.60034-.72421.90529a108.56725,108.56725,0,0,0-11.33163,17.952,45.13222,45.13222,0,0,0-2.69445-20.963c-2.57905-6.22169-7.41311-11.46162-11.67007-16.84027-5.1133-6.46057-15.5986-3.641-16.49946,4.54876q-.01306.11893-.02554.23781.94846.53507,1.85684,1.13583a4.54119,4.54119,0,0,1-1.83091,8.26411l-.0926.0143a45.18422,45.18422,0,0,0,1.191,6.7558,46.52269,46.52269,0,0,0,23.164,29.15748c.37163.19055.73377.3811,1.1054.56218a110.81472,110.81472,0,0,0-5.96492,28.07119A105.10444,105.10444,0,0,0,868.71,606.2343l-.0286-.20012a27.77289,27.77289,0,0,0-9.481-16.0366c-7.29612-5.99352-17.60417-8.20057-25.47539-13.01818a5.21218,5.21218,0,0,0-7.983,5.07064q.01582.10518.03219.21036a30.50849,30.50849,0,0,1,3.42072,1.64839q.94845.53519,1.85684,1.13583a4.54124,4.54124,0,0,1-1.83091,8.26418l-.09268.01422c-.06668.00956-.12388.01912-.19048.02868a45.22356,45.22356,0,0,0,8.3184,13.02551,46.564,46.564,0,0,0,33.76931,14.817h.00956a110.783,110.783,0,0,0,7.44186,21.72517h26.58469c.09536-.29539.18107-.60033.26687-.89572a30.20527,30.20527,0,0,1-7.35614-.43823c1.97245-2.42032,3.94482-4.85967,5.91727-7.27991a1.65238,1.65238,0,0,0,.12388-.14291c1.00048-1.23868,2.01053-2.46788,3.011-3.70656l.00054-.00153a44.24377,44.24377,0,0,0-1.29641-11.27084Zm-30.443-59.88665.014-.01888-.014.03792Zm-5.8886,53.08374-.22871-.51447c.00956-.37163.00956-.74325,0-1.12436,0-.10491-.019-.20967-.019-.31451.08572.65746.16195,1.315.25723,1.97245Z" transform="translate(-169.93432 -174.1294)" fill="#ccc"/><path d="M966.47418,307.5955H767.24135a1.64925,1.64925,0,0,1,0-3.2977H966.47418a1.64925,1.64925,0,0,1,0,3.2977Z" transform="translate(-169.93432 -174.1294)" fill="#cacaca"/><ellipse cx="607.93675" cy="120.44623" rx="4.8462" ry="4.95421" fill="#3f3d56"/><ellipse cx="624.67818" cy="120.44623" rx="4.8462" ry="4.95421" fill="#3f3d56"/><ellipse cx="641.41961" cy="120.44623" rx="4.8462" ry="4.95421" fill="#3f3d56"/><path d="M958.68675,291.5355H947.84163a.82133.82133,0,0,0,0,1.64234h10.84512a.82133.82133,0,0,0,0-1.64234Z" transform="translate(-169.93432 -174.1294)" fill="#3f3d56"/><path d="M958.68675,294.61792H947.84163a.82133.82133,0,0,0,0,1.64234h10.84512a.82133.82133,0,0,0,0-1.64234Z" transform="translate(-169.93432 -174.1294)" fill="#3f3d56"/><path d="M958.68675,297.69629H947.84163a.82133.82133,0,0,0,0,1.64234h10.84512a.82133.82133,0,0,0,0-1.64234Z" transform="translate(-169.93432 -174.1294)" fill="#3f3d56"/><path d="M635.43274,458.89724h-115.51a6.16309,6.16309,0,0,0-6.15377,6.16965v182.4718H641.60239V465.06689A6.16641,6.16641,0,0,0,635.43274,458.89724ZM578.06635,562.57549a13.70383,13.70383,0,0,1-13.63984-13.63975V527.8892a13.6398,13.6398,0,0,1,27.27959,0v21.04654a13.70363,13.70363,0,0,1-13.63975,13.63975Z" transform="translate(-169.93432 -174.1294)" fill="#e6e6e6"/><path d="M513.37246,641.70214V659.307a3.44873,3.44873,0,0,0,3.44174,3.44164h121.743a3.459,3.459,0,0,0,3.44164-3.44164v-17.6049Z" transform="translate(-169.93432 -174.1294)" fill="#ccc"/><path d="M826.70694,174.1294H332.94669a16.02852,16.02852,0,0,0-16.003,16.00291v333.1915a16.01831,16.01831,0,0,0,16.003,16.00291H826.70694a16.0183,16.0183,0,0,0,16.003-16.00291V190.13231A16.02851,16.02851,0,0,0,826.70694,174.1294Z" transform="translate(-169.93432 -174.1294)" fill="#e6e6e6"/><path d="M822.58545,185.68807H337.072a8.577,8.577,0,0,0-8.55836,8.57616v324.933a8.57312,8.57312,0,0,0,8.55836,8.55835H822.58545a8.57312,8.57312,0,0,0,8.55836-8.55835v-324.933A8.577,8.577,0,0,0,822.58545,185.68807Z" transform="translate(-169.93432 -174.1294)" fill="#fff"/><path d="M831.14381,194.26423v324.933a8.57312,8.57312,0,0,1-8.55836,8.55835H651.3826a210.0918,210.0918,0,0,1-45.83429-61.67q-1.12107-2.242-2.13516-4.53716a208.22672,208.22672,0,0,1-18.50461-71.22483c-.12456-1.51234-.23132-3.0248-.30245-4.555-.23131-3.91445-.33807-7.88222-.33807-11.8678a209.12838,209.12838,0,0,1,14.75024-77.41671c.58719-1.53016,1.2099-3.04261,1.85052-4.555A210.6655,210.6655,0,0,1,701.13144,185.68807h121.454A8.577,8.577,0,0,1,831.14381,194.26423Z" transform="translate(-169.93432 -174.1294)" fill="#5fb878"/><path d="M798.17952,230.45658h-454.293a1.807,1.807,0,0,1,0-3.61318h454.293a1.807,1.807,0,0,1,0,3.61318Z" transform="translate(-169.93432 -174.1294)" fill="#cacaca"/><ellipse cx="204.8765" cy="32.66644" rx="10.58751" ry="10.82345" fill="#3f3d56"/><ellipse cx="241.45152" cy="32.66644" rx="10.58751" ry="10.82345" fill="#3f3d56"/><ellipse cx="278.02654" cy="32.66644" rx="10.58751" ry="10.82345" fill="#3f3d56"/><path d="M776.15825,198.65509h-25.981a1.96761,1.96761,0,0,0,0,3.93445h25.981a1.96761,1.96761,0,0,0,0-3.93445Z" transform="translate(-169.93432 -174.1294)" fill="#3f3d56"/><path d="M776.15825,206.03946h-25.981a1.96761,1.96761,0,0,0,0,3.93445h25.981a1.96761,1.96761,0,0,0,0-3.93445Z" transform="translate(-169.93432 -174.1294)" fill="#3f3d56"/><path d="M776.15825,213.41413h-25.981a1.96761,1.96761,0,0,0,0,3.93445h25.981a1.96761,1.96761,0,0,0,0-3.93445Z" transform="translate(-169.93432 -174.1294)" fill="#3f3d56"/><rect x="245.18323" y="161.87055" width="72.2068" height="15.44057" rx="4.33898" fill="#5fb878"/><rect x="208.51186" y="192.75169" width="145.54953" height="15.44057" rx="4.33898" fill="#e6e6e6"/><rect x="208.51186" y="223.63284" width="145.54953" height="15.44057" rx="4.33898" fill="#e6e6e6"/><path d="M390.326,509.12653a53.04966,53.04966,0,0,1-3.34507,18.62906H337.072a8.57312,8.57312,0,0,1-8.55836-8.55835V456.42412a52.71645,52.71645,0,0,1,8.4338-.67613A53.37521,53.37521,0,0,1,390.326,509.12653Z" transform="translate(-169.93432 -174.1294)" fill="#5fb878"/><path d="M831.58863,296.48417v-4.555H755.23956V239.13786H750.7023v52.79135H663.19708V239.13786h-4.53716v52.79135H600.86878c-.64062,1.51235-1.26333,3.0248-1.85052,4.555h59.64166v89.28451H584.60609c.07113,1.53016.17789,3.04262.30245,4.555h73.75138v71.22483H603.41315q1.0142,2.29524,2.13516,4.53716h53.11161V525.9585h4.53716V466.08563H750.7023V525.9585h4.53726V466.08563h76.34907v-4.53716H755.23956v-.00007a71.22476,71.22476,0,0,1,71.22476-71.22476h5.12431v-4.555H755.23956V296.48417ZM750.7023,461.54847H663.19708V390.32364H750.7023Zm0-75.77979H663.19708v-1.77937a87.50514,87.50514,0,0,1,87.50513-87.50514h.00009Z" transform="translate(-169.93432 -174.1294)" opacity="0.2"/><path d="M770.11592,494.045a4.75474,4.75474,0,0,1-3.44595-8.24114c.11989-.47653.2059-.81872.32579-1.29526q-.06434-.15557-.12945-.31092c-4.3774-10.43787-19.21288-10.36587-23.553.08754-3.85222,9.27793-8.75677,18.57172-9.96439,28.38157A37.774,37.774,0,0,0,734.012,525.658a151.44445,151.44445,0,0,1-13.77632-62.89974,146.17434,146.17434,0,0,1,.90669-16.30689q.75112-6.65814,2.08412-13.22149a153.19922,153.19922,0,0,1,30.38077-64.92967,40.77066,40.77066,0,0,0,16.95642-17.59248,31.09956,31.09956,0,0,0,2.82835-8.49852c-.82546.10827-1.66449.17593-2.49.23-.25716.01347-.52779.027-.785.04062l-.097.00434a4.71086,4.71086,0,0,1-3.86895-7.67479q.53463-.658,1.06992-1.31525c.54136-.67668,1.09619-1.33978,1.63745-2.01635a2.34649,2.34649,0,0,0,.17593-.20308c.6226-.77138,1.245-1.52918,1.86758-2.30056a13.62216,13.62216,0,0,0-4.46581-4.31681c-6.23857-3.65381-14.84536-1.12324-19.35178,4.51989-4.51989,5.643-5.37239,13.55977-3.8027,20.61023,1.33989,6.0356,4.26283,11.57046,7.55131,16.83457-.33839.43309-.69025.85261-1.02854,1.2857a154.18847,154.18847,0,0,0-16.09338,25.49578,64.09776,64.09776,0,0,0-3.8267-29.77208c-3.66283-8.83615-10.52823-16.278-16.574-23.91685-7.262-9.17541-22.15342-5.171-23.43282,6.46023q-.01857.16892-.03627.33774,1.347.75992,2.6371,1.61313a6.44947,6.44947,0,0,1-2.60029,11.73683l-.13151.02031a64.1738,64.1738,0,0,0,1.69153,9.59471,66.07241,66.07241,0,0,0,32.89788,41.41c.52779.27063,1.04211.54126,1.56991.79842a157.38053,157.38053,0,0,0-8.47148,39.86721,149.27026,149.27026,0,0,0,.10827,24.10169l-.04061-.28421a39.44359,39.44359,0,0,0-13.46508-22.77547c-10.36207-8.5121-25.00175-11.64659-36.1806-18.48864-5.38119-3.29359-12.27678.96262-11.33762,7.20141q.02248.14937.04572.29875a43.32841,43.32841,0,0,1,4.85817,2.34107q1.347.76008,2.63711,1.61313a6.44955,6.44955,0,0,1-2.60029,11.73694l-.13162.0202c-.0947.01357-.17593.02715-.27052.04072a64.22737,64.22737,0,0,0,11.81393,18.49907,66.131,66.131,0,0,0,47.95979,21.04332h.01357a157.33552,157.33552,0,0,0,10.56907,30.85448h37.756c.13542-.41952.25716-.85261.379-1.27213a42.89713,42.89713,0,0,1-10.44733-.62238c2.80131-3.43737,5.60251-6.90179,8.40382-10.33905a2.34409,2.34409,0,0,0,.17593-.203c1.42091-1.7592,2.85539-3.50492,4.2763-5.26412l.00076-.00217a62.83569,62.83569,0,0,0-1.84119-16.007Zm-43.23573-85.05208.01987-.02682-.01987.05386Zm-8.3631,75.39047-.32482-.73065c.01358-.5278.01358-1.05559,0-1.59684,0-.149-.027-.29778-.027-.44667.12174.93373.23,1.86758.36533,2.80131Z" transform="translate(-169.93432 -174.1294)" fill="#2f2e41"/><path d="M433.9109,405.74122h0V354.99783A29.36884,29.36884,0,0,0,404.54206,325.629H297.03532a29.36886,29.36886,0,0,0-29.36886,29.36886v278.382a29.36883,29.36883,0,0,0,29.36883,29.36883h107.5068a29.36878,29.36878,0,0,0,29.36878-29.36878V441.8612h0a1.8523,1.8523,0,0,0,1.8523-1.8523V407.59353A1.8523,1.8523,0,0,0,433.9109,405.74122Z" transform="translate(-169.93432 -174.1294)" fill="#e6e6e6"/><path d="M427.66059,355.19941v277.98a21.91853,21.91853,0,0,1-21.69,21.92,1.92592,1.92592,0,0,1-.24006.01h-108.03a21.93206,21.93206,0,0,1-21.93-21.93v-277.98a21.932,21.932,0,0,1,21.93-21.93h13.11a10.42747,10.42747,0,0,0,9.65,14.36h61.59a10.43506,10.43506,0,0,0,9.64-14.36h14.04A21.932,21.932,0,0,1,427.66059,355.19941Z" transform="translate(-169.93432 -174.1294)" fill="#fff"/><path d="M406.24054,646.52937q0,4.32-.26995,8.57a1.92592,1.92592,0,0,1-.24006.01h-108.03a21.93206,21.93206,0,0,1-21.93-21.93v-123.88A137.38836,137.38836,0,0,1,406.24054,646.52937Z" transform="translate(-169.93432 -174.1294)" fill="#f2f2f2"/><path d="M268.26056,434.129a2.50295,2.50295,0,0,1-2.5-2.5v-17a2.5,2.5,0,0,1,5,0v17A2.50294,2.50294,0,0,1,268.26056,434.129Z" transform="translate(-169.93432 -174.1294)" fill="#e6e6e6"/><rect x="164.17787" y="246.42571" width="35.2068" height="15.44057" rx="4.33898" fill="#5fb878"/><rect x="127.5065" y="277.30686" width="108.54953" height="15.44057" rx="4.33898" fill="#e6e6e6"/><rect x="127.5065" y="308.18801" width="108.54953" height="15.44057" rx="4.33898" fill="#e6e6e6"/><path d="M377.62087,639.29011a2.23124,2.23124,0,0,1-1.61707-3.86729l.15289-.60782q-.0302-.073-.06075-.14591a5.99185,5.99185,0,0,0-11.05266.04108c-1.80772,4.35382-4.10926,8.71509-4.67595,13.31852a17.726,17.726,0,0,0,.31117,6.09636,71.06775,71.06775,0,0,1-6.46477-29.51675,68.59517,68.59517,0,0,1,.42548-7.65228q.35248-3.12444.978-6.2044a71.89124,71.89124,0,0,1,14.25668-30.46933,19.13236,19.13236,0,0,0,7.95709-8.25556,14.5946,14.5946,0,0,0,1.32725-3.98808c-.38736.05081-.7811.08256-1.16846.10794-.12067.00632-.24767.01269-.36835.01906l-.04551.002a2.21065,2.21065,0,0,1-1.81556-3.60153q.25088-.30874.50207-.61719c.25405-.31755.51441-.62872.7684-.94621a1.10093,1.10093,0,0,0,.08256-.0953c.29217-.362.58423-.7176.87639-1.07958a6.39241,6.39241,0,0,0-2.09565-2.02573c-2.92755-1.71461-6.96643-.5271-9.08115,2.121-2.121,2.64808-2.52108,6.36315-1.78448,9.67169a25.618,25.618,0,0,0,3.54358,7.89991c-.15879.20323-.32391.4001-.48266.60334a72.355,72.355,0,0,0-7.55208,11.96431,30.07892,30.07892,0,0,0-1.79575-13.971c-1.71884-4.14651-4.94055-7.63872-7.77764-11.22338a6.17381,6.17381,0,0,0-10.99625,3.03157q-.00871.07928-.017.15849.6321.35661,1.23751.757a3.02652,3.02652,0,0,1-1.22023,5.5077l-.06172.00953a30.11472,30.11472,0,0,0,.79378,4.50248,31.0056,31.0056,0,0,0,15.43788,19.43232c.24767.127.489.254.7367.37467a73.85346,73.85346,0,0,0-3.97538,18.70835,70.04857,70.04857,0,0,0,.05081,11.31012l-.01906-.13337a18.50952,18.50952,0,0,0-6.31871-10.68777c-4.86257-3.99444-11.73249-5.46535-16.97835-8.6761a3.47371,3.47371,0,0,0-5.32036,3.37938l.02145.14019a20.33344,20.33344,0,0,1,2.27978,1.09859q.6321.35668,1.23751.757a3.02655,3.02655,0,0,1-1.22024,5.50775l-.06176.00948c-.04444.00637-.08256.01274-.127.01911a30.1398,30.1398,0,0,0,5.54389,8.681,31.03308,31.03308,0,0,0,22.50593,9.87493h.00637a73.83125,73.83125,0,0,0,4.95971,14.479h17.71765c.06355-.19686.12068-.4001.17786-.597a20.13045,20.13045,0,0,1-4.90258-.29207c1.31456-1.613,2.62907-3.23878,3.94363-4.85177a1.10052,1.10052,0,0,0,.08256-.09525c.66678-.82553,1.33994-1.64474,2.00672-2.47027l.00036-.001a29.48674,29.48674,0,0,0-.864-7.51157ZM357.33178,599.378l.00933-.01259-.00933.02527Zm-3.92452,35.37823-.15243-.34287c.00638-.24768.00638-.49535,0-.74935,0-.06992-.01268-.13974-.01268-.2096.05712.43817.10793.87639.17143,1.31456Z" transform="translate(-169.93432 -174.1294)" fill="#ccc"/><path d="M267.76056,401.129a2.50295,2.50295,0,0,1-2.5-2.5v-17a2.5,2.5,0,0,1,5,0v17A2.50294,2.50294,0,0,1,267.76056,401.129Z" transform="translate(-169.93432 -174.1294)" fill="#e6e6e6"/><path d="M334.26056,336.129a2.50295,2.50295,0,0,1,2.5-2.5h17a2.5,2.5,0,0,1,0,5h-17A2.50295,2.50295,0,0,1,334.26056,336.129Z" transform="translate(-169.93432 -174.1294)" fill="#fff"/><path d="M268.26056,463.129a2.50295,2.50295,0,0,1-2.5-2.5v-17a2.5,2.5,0,0,1,5,0v17A2.50294,2.50294,0,0,1,268.26056,463.129Z" transform="translate(-169.93432 -174.1294)" fill="#e6e6e6"/><circle cx="193.32625" cy="161.99959" r="2.5" fill="#fff"/><path d="M1028.875,662.74206l-857.75.30734a1.19069,1.19069,0,0,1,0-2.38137l857.75-.30733a1.19068,1.19068,0,0,1,0,2.38136Z" transform="translate(-169.93432 -174.1294)" fill="#cacaca"/><path d="M536.70774,400.23565l-4.51178.96682a25.97456,25.97456,0,0,0-.70141-5.60184,16.82138,16.82138,0,0,1-2.54029,6.29376l-25.87636,5.526-24.84317-26.21763c-.038-13.10875,7.24154-23.07069,20.29349-23.07069.78673,0,1.60187.03789,2.4265.11374a27.60423,27.60423,0,0,1,31.60142,21.69635C541.80713,389.051,538.45176,394.40633,536.70774,400.23565Z" transform="translate(-169.93432 -174.1294)" fill="#2f2e41"/><polygon points="379.495 532.711 388.881 532.711 393.347 496.506 379.493 496.507 379.495 532.711" fill="#ffb6b6"/><path d="M547.1016,702.21l14.83766-.8856v6.35709l14.10658,9.74251a3.97089,3.97089,0,0,1-2.25639,7.23856H556.12466l-3.04479-6.28815-1.18884,6.28815H545.2307Z" transform="translate(-169.93432 -174.1294)" fill="#2f2e41"/><polygon points="269.531 522.494 277.695 527.126 299.445 497.841 287.396 491.005 269.531 522.494" fill="#ffb6b6"/><path d="M439.7257,691.44757l13.34209,6.552-3.13719,5.52908,7.46132,15.43505a3.97088,3.97088,0,0,1-5.53467,5.18221l-15.36394-8.71746.45495-6.9717-4.13716,4.88243-5.79281-3.28683Z" transform="translate(-169.93432 -174.1294)" fill="#2f2e41"/><path d="M584.12407,406.57845A8.31273,8.31273,0,0,0,577.424,417.422l-14.363,12.43183,5.426,10.571,20.03683-17.841a8.35777,8.35777,0,0,0-4.39963-16.00537Z" transform="translate(-169.93432 -174.1294)" fill="#ffb6b6"/><path d="M569.66026,449.32863c-4.79112,7.25634-15.529,14.2643-31.46542,20.47709a6.83906,6.83906,0,0,1-5.49825-.17967c-6.014-2.73707-9.86837-12.91192-10.23019-13.89889l-11.64788-15.7126c-.20677-.22889-5.65354-6.4106-5.03056-12.48783a8.87668,8.87668,0,0,1,3.82279-6.36192c8.81731-6.53644,28.57855,16.165,31.14284,19.1833l12.89683-7.85786,9.39728-4.19259,7.586-9.23085L581.315,429.98732l-9.6065,15.28305A18.4177,18.4177,0,0,1,569.66026,449.32863Z" transform="translate(-169.93432 -174.1294)" fill="#2f2e41"/><path d="M536.16214,477.16877s27.59842,43.96063,22.59842,48.96063-12.78065,6.313-12.78065,6.313l-17.21935-22.313Z" transform="translate(-169.93432 -174.1294)" fill="#2f2e41"/><path d="M511.76056,417.1294l13.0073,8.79906a33.552,33.552,0,0,1,13.07194,38.27628l-3.66191,11.13047Z" transform="translate(-169.93432 -174.1294)" fill="#2f2e41"/><polygon points="318.826 363 317.087 369.057 311.153 442.098 281.507 497.348 295.656 507.454 336.083 454.899 352.073 402.716 377.184 518.235 396.05 516.887 382.947 356.722 358.084 311.639 318.826 363" fill="#2f2e41"/><path d="M509.54846,419.342,527.652,434.13714a24.65484,24.65484,0,0,1,8.18435,12.60337v0a24.65458,24.65458,0,0,1,.86527,6.901l-.53945,32.12721,16.59842,44.36063s-45,17-51,2S509.54846,419.342,509.54846,419.342Z" transform="translate(-169.93432 -174.1294)" fill="#5fb878"/><path d="M514.9631,539.91579c-22.48009,0-27.95872.16916-28.31367.09731l-.35559-.07186V526.42033l5.46672-24.29093c-.63882-7.54134-2.13556-17.48536-2-26,.49-30.77524-1.02286-60.83726-1.02286-60.83726l11.89811-10.9826L506.041,407.827l10.02641,10.026c11.6544,28.68151,20.90231,55.68351,20.96053,57.41842l.73265,29.858-3,12C521.18922,526.70953,533.58942,539.91579,514.9631,539.91579Z" transform="translate(-169.93432 -174.1294)" fill="#2f2e41"/><polygon points="323.846 267.973 321.113 285.031 339.614 292.662 323.846 267.973" opacity="0.2"/><circle cx="342.48363" cy="208.86652" r="18.11367" fill="#ffb6b6"/><path d="M482.06684,474.90258l0,0a33.27248,33.27248,0,0,0,39.93954,8.07283l3.94238-1.95109Z" transform="translate(-169.93432 -174.1294)" opacity="0.2"/><path d="M545.09806,470.73289a8.31267,8.31267,0,0,0-12.74075.38476l-18.289-5.13434-5.83084,10.35316,25.92939,6.88793a8.35777,8.35777,0,0,0,10.93117-12.49151Z" transform="translate(-169.93432 -174.1294)" fill="#ffb6b6"/><path d="M501.45435,482.2223c-8.69535.00086-20.46057-5.0974-34.42712-14.97187a6.839,6.839,0,0,1-2.88-4.687c-1.03022-6.52671,5.33612-15.35019,5.96031-16.196L476.8,427.98888c.077-.29868,2.23379-8.25037,7.64826-11.07957a8.87676,8.87676,0,0,1,7.41538-.316c10.3134,3.75553,2.26019,32.75562,1.15466,36.55876l13.66419,6.43148,8.67717,5.53112,11.88318,1.24319-3.22635,14.93118-18.04692.406A18.41807,18.41807,0,0,1,501.45435,482.2223Z" transform="translate(-169.93432 -174.1294)" fill="#2f2e41"/><path d="M534.139,371.0797c-1.45024,1.88622-6.44538,3.55444-12.379,4.90038.00949-.12317.00949-.24639.00949-.36962a25.97447,25.97447,0,0,0-.7014-5.60184,16.82145,16.82145,0,0,1-2.5403,6.29375c-.09476.14221-.18952.28435-.29383.42655-5.09,1.00472-10.47376,1.782-14.69171,2.30327,2.90042,10.44536,14.01877,19.01392,12.815,25.36454l-32.57768,6.65389a25.53908,25.53908,0,0,0-.62556-7.86717,16.93373,16.93373,0,0,1-4.72034,8.95722l-2.76771.56869-.82463-4.06627c-7.14679-17.16559,2.81509-34.73875,19.13714-43.82868a19.84012,19.84012,0,0,1,12.56853-8.43591l4.06627-.83412A19.93427,19.93427,0,0,1,534.139,371.0797Z" transform="translate(-169.93432 -174.1294)" fill="#2f2e41"/><path d="M611.96139,699.46589l.48173-10.83182a34.9833,34.9833,0,0,1,16.31744-4.13057c-7.837,6.4073-6.8576,18.75842-12.17087,27.37474a21.04264,21.04264,0,0,1-15.43077,9.72408l-6.55827,4.01542a35.26073,35.26073,0,0,1,7.43207-28.57312,34.06013,34.06013,0,0,1,6.25957-5.81618C609.863,695.37012,611.96139,699.46589,611.96139,699.46589Z" transform="translate(-169.93432 -174.1294)" fill="#f2f2f2"/><path d="M627.861,725.8706H399.479a1.19069,1.19069,0,0,1,0-2.38137H627.861a1.19069,1.19069,0,1,1,0,2.38137Z" transform="translate(-169.93432 -174.1294)" fill="#cacaca"/></svg>