<?xml version="1.0" encoding="UTF-8"?>
<svg width="620px" height="200px" viewBox="0 0 620 200" version="1.1" xmlns="http://www.w3.org/2000/svg" xmlns:xlink="http://www.w3.org/1999/xlink">
    <title>Group 35</title>
    <defs>
        <linearGradient x1="100%" y1="28.3855365%" x2="50%" y2="60.1282768%" id="linearGradient-1">
            <stop stop-color="#A3B1BF" stop-opacity="0" offset="0%"></stop>
            <stop stop-color="#A3B1BF" offset="100%"></stop>
        </linearGradient>
        <linearGradient x1="-1.11022302e-14%" y1="50%" x2="100%" y2="50%" id="linearGradient-2">
            <stop stop-color="#A3B1BF" stop-opacity="0" offset="0%"></stop>
            <stop stop-color="#A3B1BF" offset="100%"></stop>
        </linearGradient>
        <linearGradient x1="100%" y1="50%" x2="2.77050217%" y2="50%" id="linearGradient-3">
            <stop stop-color="#A3B1BF" stop-opacity="0" offset="0%"></stop>
            <stop stop-color="#A3B1BF" offset="100%"></stop>
        </linearGradient>
    </defs>
    <g id="框架设计-过程版" stroke="none" stroke-width="1" fill="none" fill-rule="evenodd">
        <g id="缺省图" transform="translate(-1543.000000, -154.000000)">
            <g id="Group-35" transform="translate(1543.000000, 154.000000)">
                <g id="暂无数据" transform="translate(57.000000, 3.000000)">
                    <path d="M127.424021,59.5388128 C126.606599,58.4063927 125.438263,57.4280114 123.958785,57.4280114 C123.344291,57.4280114 122.540774,57.5633407 121.976378,57.8001748 L121.286649,58.1531256 L121.120501,57.4280114 C120.642337,55.5707287 118.554686,53.8578054 116.339591,53.8578054 C114.440304,53.8578054 112.647282,54.7806864 111.893274,56.4567899 L111.685907,56.9188903 C110.879484,56.8390213 110.408842,56.7990868 110.273979,56.7990868 C108.807184,56.7990868 107.918237,58.1707763 107.760333,59.5388128 L127.424021,59.5388128 Z M116.256317,51.6240487 C118.838356,51.6240487 121.212177,53.0633181 122.428006,55.3281583 C122.702588,55.2940639 122.980213,55.2770167 123.257839,55.2770167 C126.194825,55.2770167 128.762253,57.1607306 129.646271,59.9643836 L129.674277,60.0538813 L129.674277,61.6371587 L91.9308053,61.6371587 L91.9308053,59.5388128 L105.610959,59.5388128 C105.763166,56.9263318 107.861796,54.8283105 110.474277,54.6767123 C111.779604,52.7589041 113.917199,51.6240487 116.256317,51.6240487 Z M98.0152207,55.2770167 L98.0152207,57.338946 L85.8386606,57.338946 L85.8386606,55.2770167 L98.0152207,55.2770167 Z" id="cloud4-copy" fill="#A3B1BF"></path>
                    <path d="M41.5853608,128.914764 C40.7679381,127.782344 39.5996027,126.803963 38.1201246,126.803963 C37.5056307,126.803963 36.7021134,126.939292 36.1377176,127.176126 L35.4479887,127.529077 L35.2818407,126.803963 C34.8036768,124.94668 32.7160256,123.233757 30.5009305,123.233757 C28.6016434,123.233757 26.8086214,124.156638 26.0546139,125.832741 L25.847246,126.294842 C25.0408238,126.214973 24.5701811,126.175038 24.435318,126.175038 C22.968523,126.175038 22.0795768,127.546728 21.9216729,128.914764 L41.5853608,128.914764 Z M30.417656,121 C32.9996956,121 35.373516,122.439269 36.5893455,124.70411 C36.8639269,124.670015 37.1415525,124.652968 37.4191781,124.652968 C40.3561644,124.652968 42.9235921,126.536682 43.8076104,129.340335 L43.8356164,129.429833 L43.8356164,131.01311 L6.09214469,131.01311 L6.09214469,128.914764 L19.7722983,128.914764 C19.9245053,126.302283 22.0231355,124.204262 24.6356164,124.052664 C25.9409437,122.134855 28.0785388,121 30.417656,121 Z M12.1765601,124.652968 L12.1765601,126.714897 L1.19726451e-12,126.714897 L1.19726451e-12,124.652968 L12.1765601,124.652968 Z" id="cloud3" fill="#A3B1BF"></path>
                    <path d="M503.585361,128.914764 C502.767938,127.782344 501.599603,126.803963 500.120125,126.803963 C499.505631,126.803963 498.702113,126.939292 498.137718,127.176126 L497.447989,127.529077 L497.281841,126.803963 C496.803677,124.94668 494.716026,123.233757 492.50093,123.233757 C490.601643,123.233757 488.808621,124.156638 488.054614,125.832741 L487.847246,126.294842 C487.040824,126.214973 486.570181,126.175038 486.435318,126.175038 C484.968523,126.175038 484.079577,127.546728 483.921673,128.914764 L503.585361,128.914764 Z M492.417656,121 C494.999696,121 497.373516,122.439269 498.589346,124.70411 C498.863927,124.670015 499.141553,124.652968 499.419178,124.652968 C502.356164,124.652968 504.923592,126.536682 505.80761,129.340335 L505.835616,129.429833 L505.835616,131.01311 L468.092145,131.01311 L468.092145,128.914764 L481.772298,128.914764 C481.924505,126.302283 484.023135,124.204262 486.635616,124.052664 C487.940944,122.134855 490.078539,121 492.417656,121 Z M474.17656,124.652968 L474.17656,126.714897 L462,126.714897 L462,124.652968 L474.17656,124.652968 Z" id="cloud3" fill="#A3B1BF"></path>
                    <path d="M404.542857,12.7724191 C393.849559,45.4839352 372.154979,58.2098935 339.459117,50.950294 C277.116397,35.7637149 362.44716,-23.5985442 347.6627,53.8807932 C342.542621,80.7130415 317.479147,99.6801616 272.40272,99.6528527" id="Path-4" stroke="url(#linearGradient-1)" stroke-width="3" stroke-linecap="round" fill-rule="nonzero" transform="translate(338.472789, 56.212636) rotate(11.000000) translate(-338.472789, -56.212636) "></path>
                    <path d="M362.000112,73.9497723 C362.670671,73.9497723 363.214076,73.4063457 363.214076,72.7358084 L363.214076,71.2139639 C363.214076,70.5434265 362.670649,70 362.000134,70 C361.329619,70 360.786125,70.5434489 360.786125,71.2139639 L360.786125,72.7358084 C360.786125,73.4063234 361.329574,73.9497723 362.000134,73.9497723 L362.000112,73.9497723 Z M362.000112,86.0502054 C361.329574,86.0502054 360.786148,86.5936543 360.786148,87.2641693 L360.786148,88.7859915 C360.786148,89.4565511 361.329597,89.9999777 362.000134,89.9999777 C362.670671,89.9999777 363.214076,89.4565288 363.214076,88.7859915 L363.214076,87.2641916 C363.214076,86.5936543 362.670649,86.0502054 362.000134,86.0502054 L362.000112,86.0502054 Z M370.786058,78.7861255 L369.264236,78.7861255 C368.593677,78.7861255 368.050429,79.3293733 368.050429,80.0000894 C368.050429,80.670448 368.593677,81.2138969 369.264236,81.2138969 L370.786058,81.2138969 C371.456596,81.2138969 372,80.670448 372,80.0000894 C372,79.3293733 371.456573,78.7861255 370.786058,78.7861255 L370.786058,78.7861255 Z M355.949795,80.0000894 C355.949795,79.3293733 355.406346,78.7861255 354.735808,78.7861255 L353.213986,78.7861255 C352.54403,78.7861255 352,79.3293733 352,80.0000894 C352,80.670448 352.54403,81.2138969 353.213986,81.2138969 L354.735808,81.2138969 C355.406368,81.2138969 355.949795,80.670448 355.949795,80.0000894 Z M367.995429,84.2784508 C367.521165,83.8043656 366.753139,83.8043656 366.278473,84.2784508 C365.804388,84.7527148 365.804388,85.5210984 366.278473,85.9951836 L367.354715,87.0710234 C367.591467,87.3081554 367.902029,87.4269336 368.213171,87.4269336 C368.523732,87.4269336 368.834115,87.3081778 369.071046,87.0710234 C369.545533,86.5967595 369.545533,85.8285769 369.071046,85.3544693 L367.995407,84.2784508 L367.995429,84.2784508 Z M356.004236,75.721929 C356.241569,75.959262 356.552733,76.0774371 356.863272,76.0774371 C357.174012,76.0774371 357.484395,75.959262 357.721728,75.7224874 C358.195813,75.2484022 358.195813,74.4798399 357.722108,74.0051961 L356.646089,72.9289542 C356.172384,72.4554721 355.40362,72.4554721 354.928954,72.9279936 C354.45469,73.4026597 354.45469,74.1712444 354.928574,74.6453073 L356.004236,75.721929 Z M356.004839,84.2784508 L354.928999,85.3544917 C354.454735,85.8285769 354.454735,86.5967818 354.928999,87.0710234 C355.165572,87.3081554 355.476715,87.4269336 355.787656,87.4269336 C356.097837,87.4269336 356.408801,87.3081778 356.645531,87.0710234 L357.72175,85.9951836 C358.195836,85.5210984 358.195836,84.7527595 357.72175,84.2784508 C357.247665,83.8043879 356.478343,83.8043879 356.004839,84.2784508 L356.004839,84.2784508 Z M367.13713,76.0774371 C367.447513,76.0774371 367.759057,75.959262 367.995787,75.721929 L369.071828,74.6453073 C369.545511,74.1712444 369.545511,73.4026597 369.071046,72.9279936 C368.596782,72.4554721 367.828421,72.4545115 367.353754,72.9289542 L366.278116,74.0051961 C365.80441,74.4798622 365.80441,75.2484245 366.278495,75.7224874 C366.515806,75.959262 366.826368,76.0774371 367.13713,76.0774371 Z" id="Shape" stroke="#A3B1BF" fill="#A3B1BF" fill-rule="nonzero" opacity="0.40327381"></path>
                    <path d="M401.801829,22.0236541 C402.387615,22.6094406 402.387615,23.559188 401.801829,24.1449745 L400.033314,25.9123143 L401.801829,27.6805084 C402.387615,28.2662948 402.387615,29.2160423 401.801829,29.8018287 C401.216042,30.3876151 400.266295,30.3876151 399.680508,29.8018287 L397.912314,28.0333143 L396.144974,29.8018287 C395.559188,30.3876151 394.609441,30.3876151 394.023654,29.8018287 C393.437868,29.2160423 393.437868,28.2662948 394.023654,27.6805084 L395.791314,25.9123143 L394.023654,24.1449745 C393.437868,23.559188 393.437868,22.6094406 394.023654,22.0236541 C394.609441,21.4378677 395.559188,21.4378677 396.144974,22.0236541 L397.912314,23.7913143 L399.680508,22.0236541 C400.266295,21.4378677 401.216042,21.4378677 401.801829,22.0236541 Z" id="Combined-Shape-Copy-8" fill="#A3B1BF" fill-rule="nonzero" opacity="0.40327381" transform="translate(397.912741, 25.912741) rotate(30.000000) translate(-397.912741, -25.912741) "></path>
                    <path d="M182.481192,112.703017 C183.066978,113.288804 183.066978,114.238551 182.481192,114.824337 L180.712677,116.591677 L182.481192,118.359871 C183.066978,118.945658 183.066978,119.895405 182.481192,120.481192 C181.895405,121.066978 180.945658,121.066978 180.359871,120.481192 L178.591677,118.712677 L176.824337,120.481192 C176.238551,121.066978 175.288804,121.066978 174.703017,120.481192 C174.117231,119.895405 174.117231,118.945658 174.703017,118.359871 L176.470677,116.591677 L174.703017,114.824337 C174.117231,114.238551 174.117231,113.288804 174.703017,112.703017 C175.288804,112.117231 176.238551,112.117231 176.824337,112.703017 L178.591677,114.470677 L180.359871,112.703017 C180.945658,112.117231 181.895405,112.117231 182.481192,112.703017 Z" id="Combined-Shape-Copy-9" fill="#A3B1BF" fill-rule="nonzero" opacity="0.40327381" transform="translate(178.592104, 116.592104) rotate(21.000000) translate(-178.592104, -116.592104) "></path>
                    <path d="M255.756523,87.6774526 C252.646357,87.2191043 252.409392,86.777944 252.409392,86.777944 C253.049197,83.0595931 251.064615,78.3500639 247.824118,75.8005013 C243.511353,72.4087236 236.953345,74.8723459 231.846748,69.7159271 C230.655999,68.5127627 231.349122,83.2085563 237.741254,88.7774886 C242.41539,92.8453301 247.918904,91.5963309 249.429556,90.9317258 C250.798029,90.3244143 251.757738,89.2186489 251.757738,89.2186489 C254.251795,89.963465 255.484013,89.9176301 255.484013,89.9176301 C256.360784,90.0207585 256.805093,87.8321452 255.756523,87.6774526 Z M250.23976,88.4387369 C241.572443,86.6548975 235.860216,76.8764451 235.860216,76.8764451 C235.860216,76.8764451 241.393479,83.559077 250.840571,86.3965362 C250.852475,86.8794631 250.555229,88.1644822 250.23976,88.4387369 Z" id="Shape" fill="#A3B1BF" fill-rule="nonzero" transform="translate(243.866495, 80.646219) rotate(-50.000000) translate(-243.866495, -80.646219) "></path>
                    <path d="M284.036575,108.186104 C283.941177,108.060119 283.790165,107.990999 283.632082,108.000944 C283.475216,108.010889 283.333562,108.099961 283.25515,108.23651 C281.890084,110.62706 280.122319,111.45085 278.562891,112.177417 C277.542023,112.653192 276.577904,113.102556 275.8597,113.917577 C275.058899,114.82753 274.68547,116.056199 274.68547,117.781131 C274.68547,118.442066 274.740466,119.174493 274.850479,119.994775 C272.790007,120.490481 271,120.205086 271,120.205086 L271,122.082971 C273.298142,122.082971 275.205273,121.541583 276.595466,120.956805 C277.50628,120.611142 278.309967,120.149996 279.018256,119.620329 C279.099658,119.559441 279.143523,119.524819 279.145275,119.523086 C282.559723,116.887066 283.66259,112.694189 283.66259,112.694189 C283.66259,117.175267 280.397443,121.061703 276.229665,122.45329 C277.51164,122.861698 278.702256,123.042133 279.779315,122.991747 C280.98867,122.934347 282.061049,122.588642 282.966607,121.961113 C284.894206,120.628123 286,118.044222 286,114.873809 C286,112.310396 285.265367,109.810244 284.036121,108.185485 L284.036595,108.186062 L284.036575,108.186104 Z" id="Path" fill="#A3B1BF"></path>
                    <g id="Group-3" transform="translate(258.984540, 88.713689) rotate(-20.000000) translate(-258.984540, -88.713689) translate(190.484540, 20.213689)" fill="#A3B1BF">
                        <path d="M108.768881,108.807257 L108.638364,133.235841 L100.902418,130.420187 L108.768881,108.807257 Z M32.9768459,14 L5.35958214,86.9540043 L5,15.0324311 L32.9768459,14 Z M109.292315,14.1079371 L109.493973,29.0798232 L68.8719874,14.2946298 L109.292315,14.1079371 Z" id="Combined-Shape" fill-rule="nonzero" opacity="0.149972098"></path>
                        <path d="M35.8002691,0.501535499 L66.6412144,11.7265355 L111.032838,11.7269142 L111.010214,27.8755355 L136.347379,37.0976908 L110.908214,106.989535 L110.871416,136.371331 L101.313214,132.891535 L98.642589,131.919338 L132.502241,38.8907083 L37.5932865,4.34667379 L3.73363431,97.3753036 L0.914214432,96.3501828 L3.75221443,88.5525355 L3.87910868,11.7269142 L31.7142144,11.7265355 L35.8002691,0.501535499 Z M108.412214,113.847535 L102.829214,129.187535 L108.487865,131.247078 L108.412214,113.847535 Z M30.5682144,14.8755355 L7.06327341,14.8759949 L7.09021443,79.3815355 L30.5682144,14.8755355 Z M108.039214,26.7945355 L107.989648,14.8759949 L75.2922144,14.8755355 L108.039214,26.7945355 Z" id="Combined-Shape"></path>
                        <path d="M13.847793,64.3592085 L13.847793,66.7945205 L11.3059361,66.7945205 L11.3059361,64.3592085 L13.847793,64.3592085 Z M18.847793,52.1826484 L18.847793,54.6179604 L11.3059361,54.6179604 L11.3059361,52.1826484 L18.847793,52.1826484 Z M21.847793,40.0060883 L21.847793,42.4414003 L11.3059361,42.4414003 L11.3059361,40.0060883 L21.847793,40.0060883 Z M18.0852588,25.3366488 C20.1027373,25.3366488 21.7382268,26.9721383 21.7382268,28.9896168 C21.7382268,31.0070954 20.1027373,32.6425849 18.0852588,32.6425849 C16.0677803,32.6425849 14.4322908,31.0070954 14.4322908,28.9896168 C14.4322908,26.9721383 16.0677803,25.3366488 18.0852588,25.3366488 Z" id="Combined-Shape" opacity="0.4765625"></path>
                    </g>
                    <g id="Group-3-Copy" transform="translate(208.000000, 39.000000)">
                        <path d="M3,99 L1.81887838e-12,99 L1.81887838e-12,-2.77555756e-17 L101,-2.77555756e-17 L101,99 L98,99 L98,3 L3,3 L3,99 Z" id="Combined-Shape" fill="#A3B1BF" fill-rule="nonzero" opacity="0.248070126"></path>
                        <path d="M25,89 L91,89 L91,92 L11,92 L11,89 L22,89 L22,68 L11,68 L11,65 L22,65 L22,56 L11,56 L11,53 L22,53 L22,44 L11,44 L11,41 L22,41 L22,32 L11,32 L11,29 L22,29 L22,10 L25,10 L25,17 L91,17 L91,20 L25,20 L25,29 L91,29 L91,32 L25,32 L25,41 L30,41 L30,44 L25,44 L25,53 L91,53 L91,56 L25,56 L25,65 L91,65 L91,68 L25,68 L25,77 L68,77 L68,80 L25,80 L25,89 Z M91,77 L91,80 L77,80 L77,77 L91,77 Z M91,41 L91,44 L47,44 L47,41 L91,41 Z" id="Combined-Shape" fill="#A3B1BF" fill-rule="nonzero" opacity="0.248070126"></path>
                        <circle id="Oval-6" stroke="#A3B1BF" stroke-width="3" opacity="0.3" cx="15" cy="18" r="2.5"></circle>
                        <circle id="Oval-6-Copy" stroke="#A3B1BF" stroke-width="3" opacity="0.3" cx="15" cy="79" r="2.5"></circle>
                    </g>
                    <rect id="Rectangle-34" fill="url(#linearGradient-2)" x="154" y="134" width="51" height="4"></rect>
                    <rect id="Rectangle-34-Copy" fill="url(#linearGradient-3)" x="319" y="134" width="45" height="4"></rect>
                </g>
            </g>
        </g>
    </g>
</svg>